<?xml version="1.0" encoding="UTF-8"?>
<svg id="Layer_1" data-name="Layer 1" xmlns="http://www.w3.org/2000/svg" viewBox="0 0 283.46 283.46">
  <defs>
    <style>
      .cls-1 {
        fill: #c44d9c;
      }

      .cls-1, .cls-2 {
        stroke-width: 0px;
      }

      .cls-2 {
        fill: #3f1148;
        opacity: .38;
      }
    </style>
  </defs>
  <rect class="cls-2" y="59.96" width="223.51" height="223.51"/>
  <rect class="cls-2" x="29.98" y="29.98" width="223.51" height="223.51"/>
  <rect class="cls-2" x="59.96" width="223.51" height="223.51"/>
  <g>
    <path class="cls-1" d="m116.78,123.56c-.82,0-1.36-.41-1.63-1.5-.81-3.27-2.17-4.9-4.08-4.9-1.36,0-2.04,1.09-2.04,2.45,0,4.36,6.4,9.26,14.56,14.83,8.85,5.99,15.52,15.79,15.52,25.86,0,18.24-10.89,32.8-28.72,32.8-20.69,0-30.21-14.97-30.21-36.75,0-.68.55-1.36,1.63-1.36l18.78-.95c.95,0,1.5.55,1.63,1.77.55,5.44,2.86,11.3,6.13,11.3,1.91,0,3.13-1.22,3.13-4.36s-7.62-9.25-16.74-16.6c-9.12-7.35-13.61-17.56-13.61-26.81,0-13.88,10.34-28.99,28.58-28.99s29.53,14.29,29.53,30.48c0,.95-.54,1.77-1.63,1.77l-20.82.95Z"/>
    <path class="cls-1" d="m171.07,164.53c-.14-.68-.41-.95-.68-.95s-.41.41-.41,1.09v26.27c0,.82-.82,1.77-1.77,1.77h-22.73c-.81,0-1.63-.95-1.63-2.04v-98.67c0-.68.54-1.36,1.23-1.36h23.14c1.09,0,1.77.54,1.77,1.36v23.68c0,.54.14.95.41.95s.54-.27.82-.95l5.31-23.82c.27-.68.82-1.22,1.5-1.22h23.95c.54,0,.95.41.95,1.09,0,.27,0,.55-.14.82l-17.28,45.05c-.27.54-.41,1.5-.41,1.77s.14,1.09.27,1.5l17.83,50.49c.27.82,0,1.36-.81,1.36h-25.04c-.54,0-.95-.41-1.09-1.09l-5.17-27.08Z"/>
  </g>
</svg>